<!--
  Most icons are from FontAwesome 5
  Mastodon and Matrix are from Fork-Awesome
-->

<svg xmlns="http://www.w3.org/2000/svg">

  <symbol viewBox="0 0 256 512" id="angle-right">
    <path d="M224.3 273l-136 136c-9.4 9.4-24.6 9.4-33.9 0l-22.6-22.6c-9.4-9.4-9.4-24.6 0-33.9l96.4-96.4-96.4-96.4c-9.4-9.4-9.4-24.6 0-33.9L54.3 103c9.4-9.4 24.6-9.4 33.9 0l136 136c9.5 9.4 9.5 24.6.1 34z"/>
  </symbol>

  <symbol viewBox="0 0 448 512" id="angle-double-right">
    <path d="M224.3 273l-136 136c-9.4 9.4-24.6 9.4-33.9 0l-22.6-22.6c-9.4-9.4-9.4-24.6 0-33.9l96.4-96.4-96.4-96.4c-9.4-9.4-9.4-24.6 0-33.9L54.3 103c9.4-9.4 24.6-9.4 33.9 0l136 136c9.5 9.4 9.5 24.6.1 34zm192-34l-136-136c-9.4-9.4-24.6-9.4-33.9 0l-22.6 22.6c-9.4 9.4-9.4 24.6 0 33.9l96.4 96.4-96.4 96.4c-9.4 9.4-9.4 24.6 0 33.9l22.6 22.6c9.4 9.4 24.6 9.4 33.9 0l136-136c9.4-9.2 9.4-24.4 0-33.8z"/>
  </symbol>
  

  <symbol viewBox="0 0 448 512" id="hashtag">
    <path d="M440.667 182.109l7.143-40c1.313-7.355-4.342-14.109-11.813-14.109h-74.81l14.623-81.891C377.123 38.754 371.468 32 363.997 32h-40.632a12 12 0 0 0-11.813 9.891L296.175 128H197.54l14.623-81.891C213.477 38.754 207.822 32 200.35 32h-40.632a12 12 0 0 0-11.813 9.891L132.528 128H53.432a12 12 0 0 0-11.813 9.891l-7.143 40C33.163 185.246 38.818 192 46.289 192h74.81L98.242 320H19.146a12 12 0 0 0-11.813 9.891l-7.143 40C-1.123 377.246 4.532 384 12.003 384h74.81L72.19 465.891C70.877 473.246 76.532 480 84.003 480h40.632a12 12 0 0 0 11.813-9.891L151.826 384h98.634l-14.623 81.891C234.523 473.246 240.178 480 247.65 480h40.632a12 12 0 0 0 11.813-9.891L315.472 384h79.096a12 12 0 0 0 11.813-9.891l7.143-40c1.313-7.355-4.342-14.109-11.813-14.109h-74.81l22.857-128h79.096a12 12 0 0 0 11.813-9.891zM261.889 320h-98.634l22.857-128h98.634l-22.857 128z"/>
  </symbol>
  
  
  <symbol viewBox="0 0 512 512" id="adjust">
    <path d="M8 256c0 136.966 111.033 248 248 248s248-111.034 248-248S392.966 8 256 8 8 119.033 8 256zm248 184V72c101.705 0 184 82.311 184 184 0 101.705-82.311 184-184 184z"/>
  </symbol>

  
  {{ if .Site.Params.Style.hasIconAsFootnoteReturnLink }}
    <symbol viewBox="0 0 320 512" id="caret-down">
      <path d="M31.3 192h257.3c17.8 0 26.7 21.5 14.1 34.1L174.1 354.8c-7.8 7.8-20.5 7.8-28.3 0L17.2 226.1C4.6 213.5 13.5 192 31.3 192z"/>
    </symbol>
  {{ end }}


  {{ if .Site.Params.Social.Centralized.facebook }}
    <symbol viewBox="0 0 512 512" id="facebook">
      <path d="M504 256C504 119 393 8 256 8S8 119 8 256c0 123.78 90.69 226.38 209.25 245V327.69h-63V256h63v-54.64c0-62.15 37-96.48 93.67-96.48 27.14 0 55.52 4.84 55.52 4.84v61h-31.28c-30.8 0-40.41 19.12-40.41 38.73V256h68.78l-11 71.69h-57.78V501C413.31 482.38 504 379.78 504 256z"/>
    </symbol>
  {{ end }}

  {{ if .Site.Params.Social.Centralized.github }}
    <symbol viewBox="0 0 496 512" id="github">
      <path d="M165.9 397.4c0 2-2.3 3.6-5.2 3.6-3.3.3-5.6-1.3-5.6-3.6 0-2 2.3-3.6 5.2-3.6 3-.3 5.6 1.3 5.6 3.6zm-31.1-4.5c-.7 2 1.3 4.3 4.3 4.9 2.6 1 5.6 0 6.2-2s-1.3-4.3-4.3-5.2c-2.6-.7-5.5.3-6.2 2.3zm44.2-1.7c-2.9.7-4.9 2.6-4.6 4.9.3 2 2.9 3.3 5.9 2.6 2.9-.7 4.9-2.6 4.6-4.6-.3-1.9-3-3.2-5.9-2.9zM244.8 8C106.1 8 0 113.3 0 252c0 110.9 69.8 205.8 169.5 239.2 12.8 2.3 17.3-5.6 17.3-12.1 0-6.2-.3-40.4-.3-61.4 0 0-70 15-84.7-29.8 0 0-11.4-29.1-27.8-36.6 0 0-22.9-15.7 1.6-15.4 0 0 24.9 2 38.6 25.8 21.9 38.6 58.6 27.5 72.9 20.9 2.3-16 8.8-27.1 16-33.7-55.9-6.2-112.3-14.3-112.3-110.5 0-27.5 7.6-41.3 23.6-58.9-2.6-6.5-11.1-33.3 2.6-67.9 20.9-6.5 69 27 69 27 20-5.6 41.5-8.5 62.8-8.5s42.8 2.9 62.8 8.5c0 0 48.1-33.6 69-27 13.7 34.7 5.2 61.4 2.6 67.9 16 17.7 25.8 31.5 25.8 58.9 0 96.5-58.9 104.2-114.8 110.5 9.2 7.9 17 22.9 17 46.4 0 33.7-.3 75.4-.3 83.6 0 6.5 4.6 14.4 17.3 12.1C428.2 457.8 496 362.9 496 252 496 113.3 383.5 8 244.8 8zM97.2 352.9c-1.3 1-1 3.3.7 5.2 1.6 1.6 3.9 2.3 5.2 1 1.3-1 1-3.3-.7-5.2-1.6-1.6-3.9-2.3-5.2-1zm-10.8-8.1c-.7 1.3.3 2.9 2.3 3.9 1.6 1 3.6.7 4.3-.7.7-1.3-.3-2.9-2.3-3.9-2-.6-3.6-.3-4.3.7zm32.4 35.6c-1.6 1.3-1 4.3 1.3 6.2 2.3 2.3 5.2 2.6 6.5 1 1.3-1.3.7-4.3-1.3-6.2-2.2-2.3-5.2-2.6-6.5-1zm-11.4-14.7c-1.6 1-1.6 3.6 0 5.9 1.6 2.3 4.3 3.3 5.6 2.3 1.6-1.3 1.6-3.9 0-6.2-1.4-2.3-4-3.3-5.6-2z"/>
    </symbol>
  {{ end }}

  {{ if .Site.Params.Social.Centralized.gitlab }}
    <symbol viewBox="0 0 512 512" id="gitlab">
      <path d="M105.2 24.9c-3.1-8.9-15.7-8.9-18.9 0L29.8 199.7h132c-.1 0-56.6-174.8-56.6-174.8zM.9 287.7c-2.6 8 .3 16.9 7.1 22l247.9 184-226.2-294zm160.8-88l94.3 294 94.3-294zm349.4 88l-28.8-88-226.3 294 247.9-184c6.9-5.1 9.7-14 7.2-22zM425.7 24.9c-3.1-8.9-15.7-8.9-18.9 0l-56.6 174.8h132z"/>
    </symbol>
  {{ end }}
  
  {{ if .Site.Params.Social.Centralized.instagram }}
    <symbol viewBox="0 0 448 512" id="instagram">
      <path d="M224.1 141c-63.6 0-114.9 51.3-114.9 114.9s51.3 114.9 114.9 114.9S339 319.5 339 255.9 287.7 141 224.1 141zm0 189.6c-41.1 0-74.7-33.5-74.7-74.7s33.5-74.7 74.7-74.7 74.7 33.5 74.7 74.7-33.6 74.7-74.7 74.7zm146.4-194.3c0 14.9-12 26.8-26.8 26.8-14.9 0-26.8-12-26.8-26.8s12-26.8 26.8-26.8 26.8 12 26.8 26.8zm76.1 27.2c-1.7-35.9-9.9-67.7-36.2-93.9-26.2-26.2-58-34.4-93.9-36.2-37-2.1-147.9-2.1-184.9 0-35.8 1.7-67.6 9.9-93.9 36.1s-34.4 58-36.2 93.9c-2.1 37-2.1 147.9 0 184.9 1.7 35.9 9.9 67.7 36.2 93.9s58 34.4 93.9 36.2c37 2.1 147.9 2.1 184.9 0 35.9-1.7 67.7-9.9 93.9-36.2 26.2-26.2 34.4-58 36.2-93.9 2.1-37 2.1-147.8 0-184.8zM398.8 388c-7.8 19.6-22.9 34.7-42.6 42.6-29.5 11.7-99.5 9-132.1 9s-102.7 2.6-132.1-9c-19.6-7.8-34.7-22.9-42.6-42.6-11.7-29.5-9-99.5-9-132.1s-2.6-102.7 9-132.1c7.8-19.6 22.9-34.7 42.6-42.6 29.5-11.7 99.5-9 132.1-9s102.7-2.6 132.1 9c19.6 7.8 34.7 22.9 42.6 42.6 11.7 29.5 9 99.5 9 132.1s2.7 102.7-9 132.1z"/>
    </symbol>
  {{ end }}
  
  {{ if .Site.Params.Social.Centralized.keybase }}
    <symbol viewBox="0 0 448 512" id="keybase">
      <path d="M195.21 430.7a17.8 17.8 0 1 1-17.8-17.8 17.84 17.84 0 0 1 17.8 17.8zM288 412.8a17.8 17.8 0 1 0 17.8 17.8 17.84 17.84 0 0 0-17.8-17.8zm142.3-36c0 38.9-7.6 73.9-22.2 103h-27.3c23.5-38.7 30.5-94.8 22.4-134.3-16.1 29.5-52.1 38.6-85.9 28.8-127.8-37.5-192.5 19.7-234.6 50.3l18.9-59.3-39.9 42.3a173.31 173.31 0 0 0 31.2 72.3H64.11a197.27 197.27 0 0 1-22.2-51.3l-23.8 25.2c0-74.9-5.5-147.6 61.5-215.2a210.67 210.67 0 0 1 69.1-46.7c-6.8-13.5-9.5-29.2-7.8-46L121 144.7a32.68 32.68 0 0 1-30.6-34.4v-.1L92 84a32.75 32.75 0 0 1 32.5-30.6c1.3 0-.3-.1 28.2 1.7a32 32 0 0 1 22.8 11.4C182.61 56.1 190 46 200.11 32l20.6 12.1c-13.6 29-9.1 36.2-9 36.3 3.9 0 13.9-.5 32.4 5.7a76.19 76.19 0 0 1 46.1 102.3c19 6.1 51.3 19.9 82.4 51.8 36.6 37.6 57.7 87.4 57.7 136.6zM146 122.1a162.36 162.36 0 0 1 13.1-29.4c.1-2 2.2-13.1-7.8-13.8-28.5-1.8-26.3-1.6-26.7-1.6a8.57 8.57 0 0 0-8.6 8.1l-1.6 26.2a8.68 8.68 0 0 0 8.1 9.1zm25.8 61.8a52.3 52.3 0 0 0 22.3 20c0-21.2 28.5-41.9 52.8-17.5l8.4 10.3c20.8-18.8 19.4-45.3 12.1-60.9-13.8-29.1-46.9-32-54.3-31.7a24.24 24.24 0 0 1-23.7-15.3c-13.69 21.2-37.19 62.5-17.59 95.1zm82.9 68.4L235 268.4a4.46 4.46 0 0 0-.6 6.3l8.9 10.9a4.48 4.48 0 0 0 6.3.6l19.6-16 5.5 6.8c4.9 6 13.8-1.4 9-7.3-63.6-78.3-41.5-51.1-55.3-68.1-4.7-6-13.9 1.4-9 7.3 1.9 2.3 18.4 22.6 19.8 24.3l-9.6 7.9c-4.6 3.8 2.6 13.3 7.4 9.4l9.7-8 8 9.8zM373.11 278c-16.9-23.7-42.6-46.7-73.4-60.4a213.21 213.21 0 0 0-22.9-8.6 62.47 62.47 0 0 1-6.4 6.2l31.9 39.2a29.81 29.81 0 0 1-4.2 41.9c-1.3 1.1-13.1 10.7-29 4.9-2.9 2.3-10.1 9.9-22.2 9.9a28.42 28.42 0 0 1-22.1-10.5l-8.9-10.9a28.52 28.52 0 0 1-5-26.8 28.56 28.56 0 0 1-4.6-30c-7.2-1.3-26.7-6.2-42.7-21.4-55.8 20.7-88 64.4-101.3 91.2-14.9 30.2-18.8 60.9-19.9 90.2 8.2-8.7-3.9 4.1 114-120.9l-29.9 93.6c57.8-31.1 124-36 197.4-14.4 23.6 6.9 45.1 1.6 56-13.9 11.1-15.6 8.5-37.7-6.8-59.3zm-244.5-170.9l15.6 1 1-15.6-15.6-1z"/>
    </symbol>
  {{ end }}

  {{ if .Site.Params.Social.Centralized.linkedin }}
    <symbol viewBox="0 0 448 512" id="linkedin">
      <path d="M416 32H31.9C14.3 32 0 46.5 0 64.3v383.4C0 465.5 14.3 480 31.9 480H416c17.6 0 32-14.5 32-32.3V64.3c0-17.8-14.4-32.3-32-32.3zM135.4 416H69V202.2h66.5V416zm-33.2-243c-21.3 0-38.5-17.3-38.5-38.5S80.9 96 102.2 96c21.2 0 38.5 17.3 38.5 38.5 0 21.3-17.2 38.5-38.5 38.5zm282.1 243h-66.4V312c0-24.8-.5-56.7-34.5-56.7-34.6 0-39.9 27-39.9 54.9V416h-66.4V202.2h63.7v29.2h.9c8.9-16.8 30.6-34.5 62.9-34.5 67.2 0 79.7 44.3 79.7 101.9V416z"/>
    </symbol>
  {{ end }}

  {{ if .Site.Params.Social.Decentralized.mastodon }}
    <symbol viewBox="0 0 1536 1792" id="mastodon">
      <path d="M1503.302 1111.386c-22.579 116.159-202.224 243.284-408.55 267.921-107.588 12.837-213.519 24.636-326.476 19.455-184.728-8.463-330.494-44.092-330.494-44.092 0 17.983 1.11 35.106 3.328 51.12 24.015 182.308 180.772 193.228 329.261 198.32 149.872 5.127 283.321-36.951 283.321-36.951l6.157 135.491s-104.827 56.293-291.574 66.646c-102.974 5.66-230.836-2.59-379.759-42.009C65.529 1641.797 10.219 1297.502 1.482 948.17-1.11 844.449.485 746.646.49 664.847.5 307.631 234.539 202.924 234.539 202.924c118.011-54.199 320.512-76.99 531.033-78.71h5.173c210.52 1.721 413.152 24.511 531.157 78.71 0 0 234.04 104.706 234.04 461.923 0 0 2.935 263.556-32.64 446.539zm-243.429-418.827c0-88.4-21.711-159.35-67.71-210.618-46.63-51.972-107.687-78.613-183.47-78.613-87.699 0-154.104 33.703-198.002 101.121L768 576l-42.683-71.55c-43.907-67.42-110.313-101.124-198.003-101.124-75.792 0-136.849 26.642-183.47 78.614-45.21 51.973-67.718 122.219-67.718 210.618v432.53h171.359V705.273c0-88.498 37.234-133.415 111.713-133.415 82.35 0 123.63 53.283 123.63 158.646v229.788h170.35V730.505c0-105.363 41.272-158.646 123.62-158.646 74.478 0 111.715 44.917 111.715 133.415v419.816h171.358V692.56z"/>
    </symbol>
  {{ end }}
  
  {{ if .Site.Params.Social.Decentralized.matrix }}
    <symbol viewBox="0 0 1536 1792" id="matrix">
      <path d="M40.467 163.152v1465.696H145.92V1664H0V128h145.92v35.152zm450.757 464.64v74.14h2.069c19.79-28.356 43.717-50.215 71.483-65.575 27.765-15.656 59.963-23.336 96-23.336 34.56 0 66.165 6.795 94.818 20.086 28.652 13.293 50.216 37.22 65.28 70.893 16.246-23.926 38.4-45.194 66.166-63.507 27.766-18.314 60.848-27.472 98.954-27.472 28.948 0 55.828 3.545 80.64 10.635 24.812 7.088 45.785 18.314 63.508 33.968 17.722 15.656 31.31 35.742 41.354 60.85 9.747 25.107 14.768 55.236 14.768 90.683v366.573h-150.35V865.28c0-18.314-.59-35.741-2.068-51.987-1.476-16.247-5.316-30.426-11.52-42.24-6.499-12.112-15.656-21.563-28.062-28.653-12.405-7.088-29.242-10.634-50.214-10.634-21.268 0-38.4 4.135-51.397 12.112-12.997 8.27-23.336 18.608-30.72 31.901-7.386 12.997-12.407 27.765-14.77 44.602-2.363 16.542-3.84 33.379-3.84 50.216v305.133H692.971v-307.2c0-16.247-.294-32.197-1.18-48.149-.591-15.95-3.84-30.424-9.157-44.011-5.317-13.293-14.178-24.223-26.585-32.197-12.406-7.976-30.425-12.112-54.646-12.112-7.088 0-16.542 1.478-28.062 4.726-11.52 3.25-23.04 9.157-33.968 18.02-10.93 8.86-20.383 21.563-28.063 38.103-7.68 16.543-11.52 38.4-11.52 65.28v317.834H349.44V627.792zm1004.309 1001.056V163.152H1390.08V128H1536v1536h-145.92v-35.152z"/>
    </symbol>
  {{ end }}
    
  {{ if .Site.Params.Social.Centralized.medium }}
    <symbol viewBox="0 0 448 512" id="medium">
      <path d="M0 32v448h448V32H0zm372.2 106.1l-24 23c-2.1 1.6-3.1 4.2-2.7 6.7v169.3c-.4 2.6.6 5.2 2.7 6.7l23.5 23v5.1h-118V367l24.3-23.6c2.4-2.4 2.4-3.1 2.4-6.7V199.8l-67.6 171.6h-9.1L125 199.8v115c-.7 4.8 1 9.7 4.4 13.2l31.6 38.3v5.1H71.2v-5.1l31.6-38.3c3.4-3.5 4.9-8.4 4.1-13.2v-133c.4-3.7-1-7.3-3.8-9.8L75 138.1V133h87.3l67.4 148L289 133.1h83.2v5z"/>
    </symbol>
  {{ end }}
  
  {{ if .Site.Params.Social.Centralized.reddit }}
    <symbol viewBox="0 0 512 512" id="reddit">
      <path d="M201.5 305.5c-13.8 0-24.9-11.1-24.9-24.6 0-13.8 11.1-24.9 24.9-24.9 13.6 0 24.6 11.1 24.6 24.9 0 13.6-11.1 24.6-24.6 24.6zM504 256c0 137-111 248-248 248S8 393 8 256 119 8 256 8s248 111 248 248zm-132.3-41.2c-9.4 0-17.7 3.9-23.8 10-22.4-15.5-52.6-25.5-86.1-26.6l17.4-78.3 55.4 12.5c0 13.6 11.1 24.6 24.6 24.6 13.8 0 24.9-11.3 24.9-24.9s-11.1-24.9-24.9-24.9c-9.7 0-18 5.8-22.1 13.8l-61.2-13.6c-3-.8-6.1 1.4-6.9 4.4l-19.1 86.4c-33.2 1.4-63.1 11.3-85.5 26.8-6.1-6.4-14.7-10.2-24.1-10.2-34.9 0-46.3 46.9-14.4 62.8-1.1 5-1.7 10.2-1.7 15.5 0 52.6 59.2 95.2 132 95.2 73.1 0 132.3-42.6 132.3-95.2 0-5.3-.6-10.8-1.9-15.8 31.3-16 19.8-62.5-14.9-62.5zM302.8 331c-18.2 18.2-76.1 17.9-93.6 0-2.2-2.2-6.1-2.2-8.3 0-2.5 2.5-2.5 6.4 0 8.6 22.8 22.8 87.3 22.8 110.2 0 2.5-2.2 2.5-6.1 0-8.6-2.2-2.2-6.1-2.2-8.3 0zm7.7-75c-13.6 0-24.6 11.1-24.6 24.9 0 13.6 11.1 24.6 24.6 24.6 13.8 0 24.9-11.1 24.9-24.6 0-13.8-11-24.9-24.9-24.9z"/>
    </symbol>
  {{ end }}

  {{ if .Site.Params.Social.Centralized.stackOverflow }}
    <symbol viewBox="0 0 384 512" id="stack-overflow">
      <path d="M290.7 311L95 269.7 86.8 309l195.7 41zm51-87L188.2 95.7l-25.5 30.8 153.5 128.3zm-31.2 39.7L129.2 179l-16.7 36.5L293.7 300zM262 32l-32 24 119.3 160.3 32-24zm20.5 328h-200v39.7h200zm39.7 80H42.7V320h-40v160h359.5V320h-40z"/>
    </symbol>
  {{ end }}
    
  {{ if .Site.Params.Social.Centralized.telegram }}
    <symbol viewBox="0 0 448 512" id="telegram">
      <path d="M446.7 98.6l-67.6 318.8c-5.1 22.5-18.4 28.1-37.3 17.5l-103-75.9-49.7 47.8c-5.5 5.5-10.1 10.1-20.7 10.1l7.4-104.9 190.9-172.5c8.3-7.4-1.8-11.5-12.9-4.1L117.8 284 16.2 252.2c-22.1-6.9-22.5-22.1 4.6-32.7L418.2 66.4c18.4-6.9 34.5 4.1 28.5 32.2z"/>
    </symbol>
  {{ end }}
  
  {{ if .Site.Params.Social.Centralized.twitter }}
    <symbol viewBox="0 0 512 512" id="twitter">
      <path d="M459.37 151.716c.325 4.548.325 9.097.325 13.645 0 138.72-105.583 298.558-298.558 298.558-59.452 0-114.68-17.219-161.137-47.106 8.447.974 16.568 1.299 25.34 1.299 49.055 0 94.213-16.568 130.274-44.832-46.132-.975-84.792-31.188-98.112-72.772 6.498.974 12.995 1.624 19.818 1.624 9.421 0 18.843-1.3 27.614-3.573-48.081-9.747-84.143-51.98-84.143-102.985v-1.299c13.969 7.797 30.214 12.67 47.431 13.319-28.264-18.843-46.781-51.005-46.781-87.391 0-19.492 5.197-37.36 14.294-52.954 51.655 63.675 129.3 105.258 216.365 109.807-1.624-7.797-2.599-15.918-2.599-24.04 0-57.828 46.782-104.934 104.934-104.934 30.213 0 57.502 12.67 76.67 33.137 23.715-4.548 46.456-13.32 66.599-25.34-7.798 24.366-24.366 44.833-46.132 57.827 21.117-2.273 41.584-8.122 60.426-16.243-14.292 20.791-32.161 39.308-52.628 54.253z"/>
    </symbol>
  {{ end }}

</svg>
